{
  "accessors": [
    {
      "bufferView": 2,
      "componentType": 5126,
      "count": 559,
      "max": [
        1.000000238418579,
        1.0,
        1.0000003576278687
      ],
      "min": [
        -0.9999998211860657,
        -1.0,
        -1.0
      ],
      "type": "VEC3"
    },
    {
      "bufferView": 2,
      "byteOffset": 6708,
      "componentType": 5126,
      "count": 559,
      "max": [
        1.0,
        1.0,
        1.0
      ],
      "min": [
        -1.0,
        -1.0,
        -1.0
      ],
      "type": "VEC3"
    },
    {
      "bufferView": 1,
      "componentType": 5126,
      "count": 559,
      "max": [
        1.000000238418579,
        1.0
      ],
      "min": [
        0.0,
        0.0
      ],
      "type": "VEC2"
    },
    {
      "bufferView": 0,
      "componentType": 5125,
      "count": 2880,
      "type": "SCALAR"
    },
    {
      "bufferView": 2,
      "byteOffset": 13416,
      "componentType": 5126,
      "count": 863,
      "max": [
        2.8568615913391113,
        5.442903518676758,
        2.8141849040985107
      ],
      "min": [
        -2.862349510192871,
        -0.09491323679685593,
        -2.8465940952301025
      ],
      "type": "VEC3"
    },
    {
      "bufferView": 2,
      "byteOffset": 23772,
      "componentType": 5126,
      "count": 863,
      "max": [
        0.997556746006012,
        0.9998663663864136,
        0.9954693913459778
      ],
      "min": [
        -0.9989497661590576,
        -0.9996374845504761,
        -0.9972488880157471
      ],
      "type": "VEC3"
    },
    {
      "bufferView": 0,
      "byteOffset": 11520,
      "componentType": 5125,
      "count": 4782,
      "type": "SCALAR"
    },
    {
      "bufferView": 2,
      "byteOffset": 34128,
      "componentType": 5126,
      "count": 943,
      "max": [
        1.1695419549942017,
        0.27324315905570984,
        1.1894266605377197
      ],
      "min": [
        -1.1713653802871704,
        -0.485627144575119,
        -1.1372579336166382
      ],
      "type": "VEC3"
    },
    {
      "bufferView": 2,
      "byteOffset": 45444,
      "componentType": 5126,
      "count": 943,
      "max": [
        0.8841947317123413,
        0.9998152852058411,
        0.8946995735168457
      ],
      "min": [
        -0.8856621980667114,
        -0.9998711347579956,
        -0.8802624344825745
      ],
      "type": "VEC3"
    },
    {
      "bufferView": 0,
      "byteOffset": 30648,
      "componentType": 5125,
      "count": 5370,
      "type": "SCALAR"
    },
    {
      "bufferView": 2,
      "byteOffset": 56760,
      "componentType": 5126,
      "count": 863,
      "max": [
        2.8568615913391113,
        5.442903518676758,
        2.8141849040985107
      ],
      "min": [
        -2.862349510192871,
        -0.09491323679685593,
        -2.8465940952301025
      ],
      "type": "VEC3"
    },
    {
      "bufferView": 2,
      "byteOffset": 67116,
      "componentType": 5126,
      "count": 863,
      "max": [
        0.997556746006012,
        0.9998663663864136,
        0.9954693913459778
      ],
      "min": [
        -0.9989497661590576,
        -0.9996374845504761,
        -0.9972488880157471
      ],
      "type": "VEC3"
    },
    {
      "bufferView": 0,
      "byteOffset": 52128,
      "componentType": 5125,
      "count": 4782,
      "type": "SCALAR"
    },
    {
      "bufferView": 2,
      "byteOffset": 77472,
      "componentType": 5126,
      "count": 943,
      "max": [
        1.1695419549942017,
        0.27324315905570984,
        1.1894266605377197
      ],
      "min": [
        -1.1713653802871704,
        -0.485627144575119,
        -1.1372579336166382
      ],
      "type": "VEC3"
    },
    {
      "bufferView": 2,
      "byteOffset": 88788,
      "componentType": 5126,
      "count": 943,
      "max": [
        0.8841947317123413,
        0.9998152852058411,
        0.8946995735168457
      ],
      "min": [
        -0.8856621980667114,
        -0.9998711347579956,
        -0.8802624344825745
      ],
      "type": "VEC3"
    },
    {
      "bufferView": 0,
      "byteOffset": 71256,
      "componentType": 5125,
      "count": 5370,
      "type": "SCALAR"
    },
    {
      "bufferView": 2,
      "byteOffset": 100104,
      "componentType": 5126,
      "count": 557,
      "max": [
        0.14533056318759918,
        0.2492491453886032,
        0.6014396548271179
      ],
      "min": [
        -0.146302729845047,
        -0.31154102087020874,
        -0.5802757143974304
      ],
      "type": "VEC3"
    },
    {
      "bufferView": 2,
      "byteOffset": 106788,
      "componentType": 5126,
      "count": 557,
      "max": [
        0.9926156997680664,
        0.9997881054878235,
        0.9991591572761536
      ],
      "min": [
        -0.9959396123886108,
        -0.9998481273651123,
        -0.999575674533844
      ],
      "type": "VEC3"
    },
    {
      "bufferView": 0,
      "byteOffset": 92736,
      "componentType": 5125,
      "count": 3330,
      "type": "SCALAR"
    },
    {
      "bufferView": 2,
      "byteOffset": 113472,
      "componentType": 5126,
      "count": 565,
      "max": [
        0.15841074287891388,
        0.6190627217292786,
        0.28258034586906433
      ],
      "min": [
        -0.13525180518627167,
        0.06196369230747223,
        -0.8987917304039001
      ],
      "type": "VEC3"
    },
    {
      "bufferView": 2,
      "byteOffset": 120252,
      "componentType": 5126,
      "count": 565,
      "max": [
        0.9997341632843018,
        0.9977018237113953,
        0.9967904090881348
      ],
      "min": [
        -0.9979370832443237,
        -0.9921181797981262,
        -0.9974708557128906
      ],
      "type": "VEC3"
    },
    {
      "bufferView": 0,
      "byteOffset": 106056,
      "componentType": 5125,
      "count": 3378,
      "type": "SCALAR"
    },
    {
      "bufferView": 2,
      "byteOffset": 127032,
      "componentType": 5126,
      "count": 684,
      "max": [
        0.20315898954868317,
        0.5201773643493652,
        1.5541733503341675
      ],
      "min": [
        -0.343672513961792,
        -0.9027432203292847,
        -1.460827350616455
      ],
      "type": "VEC3"
    },
    {
      "bufferView": 2,
      "byteOffset": 135240,
      "componentType": 5126,
      "count": 684,
      "max": [
        0.9999998807907104,
        0.9943893551826477,
        0.9848511815071106
      ],
      "min": [
        -0.9999890327453613,
        -0.9798727631568909,
        -0.991142749786377
      ],
      "type": "VEC3"
    },
    {
      "bufferView": 0,
      "byteOffset": 119568,
      "componentType": 5125,
      "count": 4092,
      "type": "SCALAR"
    },
    {
      "bufferView": 2,
      "byteOffset": 143448,
      "componentType": 5126,
      "count": 746,
      "max": [
        0.9989549517631531,
        0.2439650148153305,
        1.1293245553970337
      ],
      "min": [
        0.6289621591567993,
        -0.2752222716808319,
        -1.1269694566726685
      ],
      "type": "VEC3"
    },
    {
      "bufferView": 2,
      "byteOffset": 152400,
      "componentType": 5126,
      "count": 746,
      "max": [
        0.9997072219848633,
        0.9999735355377197,
        0.9956921935081482
      ],
      "min": [
        -0.9997643828392029,
        -0.9997958540916443,
        -0.9898653030395508
      ],
      "type": "VEC3"
    },
    {
      "bufferView": 0,
      "byteOffset": 135936,
      "componentType": 5125,
      "count": 4422,
      "type": "SCALAR"
    },
    {
      "bufferView": 2,
      "byteOffset": 161352,
      "componentType": 5126,
      "count": 490,
      "max": [
        0.914509117603302,
        0.9882162809371948,
        0.6790904998779297
      ],
      "min": [
        -0.9147557020187378,
        -1.0165715217590332,
        -0.7132453322410583
      ],
      "type": "VEC3"
    },
    {
      "bufferView": 2,
      "byteOffset": 167232,
      "componentType": 5126,
      "count": 490,
      "max": [
        0.9995576739311218,
        0.988069474697113,
        0.9997641444206238
      ],
      "min": [
        -0.9999366402626038,
        -0.9937826991081238,
        -0.9992559552192688
      ],
      "type": "VEC3"
    },
    {
      "bufferView": 0,
      "byteOffset": 153624,
      "componentType": 5125,
      "count": 2928,
      "type": "SCALAR"
    },
    {
      "bufferView": 2,
      "byteOffset": 173112,
      "componentType": 5126,
      "count": 490,
      "max": [
        0.914509117603302,
        0.9882162809371948,
        0.6790904998779297
      ],
      "min": [
        -0.9147557020187378,
        -1.0165715217590332,
        -0.7132453322410583
      ],
      "type": "VEC3"
    },
    {
      "bufferView": 2,
      "byteOffset": 178992,
      "componentType": 5126,
      "count": 490,
      "max": [
        0.9995576739311218,
        0.988069474697113,
        0.9997641444206238
      ],
      "min": [
        -0.9999366402626038,
        -0.9937826991081238,
        -0.9992559552192688
      ],
      "type": "VEC3"
    },
    {
      "bufferView": 0,
      "byteOffset": 165336,
      "componentType": 5125,
      "count": 2928,
      "type": "SCALAR"
    }
  ],
  "asset": {
    "extras": {
      "author": "liam (https://sketchfab.com/Z2r)",
      "license": "CC-BY-4.0 (http://creativecommons.org/licenses/by/4.0/)",
      "source": "https://sketchfab.com/3d-models/open-eye-crying-laughing-emoji-374d29cb34cc4f699ab9d948ea46ef91",
      "title": "Open Eye Crying Laughing Emoji"
    },
    "generator": "Sketchfab-16.12.0",
    "version": "2.0"
  },
  "bufferViews": [
    {
      "buffer": 0,
      "byteLength": 177048,
      "name": "floatBufferViews",
      "target": 34963
    },
    {
      "buffer": 0,
      "byteLength": 4472,
      "byteOffset": 177048,
      "byteStride": 8,
      "name": "floatBufferViews",
      "target": 34962
    },
    {
      "buffer": 0,
      "byteLength": 184872,
      "byteOffset": 181520,
      "byteStride": 12,
      "name": "floatBufferViews",
      "target": 34962
    }
  ],
  "buffers": [
    {
      "byteLength": 366392,
      "uri": "scene.bin"
    }
  ],
  "extensionsUsed": [
    "KHR_materials_unlit"
  ],
  "materials": [
    {
      "doubleSided": true,
      "extensions": {
        "KHR_materials_unlit": {}
      },
      "name": "Material.013",
      "pbrMetallicRoughness": {
        "baseColorFactor": [
          1.0,
          0.597202,
          0.0761854,
          1.0
        ],
        "metallicFactor": 0.0
      }
    },
    {
      "doubleSided": true,
      "extensions": {
        "KHR_materials_unlit": {}
      },
      "name": "Material.005",
      "pbrMetallicRoughness": {
        "baseColorFactor": [
          0.8,
          0.8,
          0.8,
          1.0
        ],
        "metallicFactor": 0.0
      }
    },
    {
      "doubleSided": true,
      "extensions": {
        "KHR_materials_unlit": {}
      },
      "name": "Material.003",
      "pbrMetallicRoughness": {
        "baseColorFactor": [
          0.0,
          0.0,
          0.0,
          1.0
        ],
        "metallicFactor": 0.0
      }
    },
    {
      "doubleSided": true,
      "extensions": {
        "KHR_materials_unlit": {}
      },
      "name": "Material.010",
      "pbrMetallicRoughness": {
        "baseColorFactor": [
          0.122139,
          0.0595112,
          0.0,
          1.0
        ],
        "metallicFactor": 0.0
      }
    },
    {
      "doubleSided": true,
      "extensions": {
        "KHR_materials_unlit": {}
      },
      "name": "Material.006",
      "pbrMetallicRoughness": {
        "baseColorFactor": [
          0.8,
          0.8,
          0.8,
          1.0
        ],
        "metallicFactor": 0.0
      }
    },
    {
      "doubleSided": true,
      "extensions": {
        "KHR_materials_unlit": {}
      },
      "name": "Material.008",
      "pbrMetallicRoughness": {
        "baseColorFactor": [
          0.10946199999999996,
          0.4072399999999998,
          0.8307699999999998,
          1.0
        ],
        "metallicFactor": 0.0
      }
    }
  ],
  "meshes": [
    {
      "name": "Object_0",
      "primitives": [
        {
          "attributes": {
            "NORMAL": 1,
            "POSITION": 0,
            "TEXCOORD_0": 2
          },
          "indices": 3,
          "material": 0,
          "mode": 4
        }
      ]
    },
    {
      "name": "Object_1",
      "primitives": [
        {
          "attributes": {
            "NORMAL": 5,
            "POSITION": 4
          },
          "indices": 6,
          "material": 1,
          "mode": 4
        }
      ]
    },
    {
      "name": "Object_2",
      "primitives": [
        {
          "attributes": {
            "NORMAL": 8,
            "POSITION": 7
          },
          "indices": 9,
          "material": 2,
          "mode": 4
        }
      ]
    },
    {
      "name": "Object_3",
      "primitives": [
        {
          "attributes": {
            "NORMAL": 11,
            "POSITION": 10
          },
          "indices": 12,
          "material": 1,
          "mode": 4
        }
      ]
    },
    {
      "name": "Object_4",
      "primitives": [
        {
          "attributes": {
            "NORMAL": 14,
            "POSITION": 13
          },
          "indices": 15,
          "material": 2,
          "mode": 4
        }
      ]
    },
    {
      "name": "Object_5",
      "primitives": [
        {
          "attributes": {
            "NORMAL": 17,
            "POSITION": 16
          },
          "indices": 18,
          "material": 2,
          "mode": 4
        }
      ]
    },
    {
      "name": "Object_6",
      "primitives": [
        {
          "attributes": {
            "NORMAL": 20,
            "POSITION": 19
          },
          "indices": 21,
          "material": 2,
          "mode": 4
        }
      ]
    },
    {
      "name": "Object_7",
      "primitives": [
        {
          "attributes": {
            "NORMAL": 23,
            "POSITION": 22
          },
          "indices": 24,
          "material": 3,
          "mode": 4
        }
      ]
    },
    {
      "name": "Object_8",
      "primitives": [
        {
          "attributes": {
            "NORMAL": 26,
            "POSITION": 25
          },
          "indices": 27,
          "material": 4,
          "mode": 4
        }
      ]
    },
    {
      "name": "Object_9",
      "primitives": [
        {
          "attributes": {
            "NORMAL": 29,
            "POSITION": 28
          },
          "indices": 30,
          "material": 5,
          "mode": 4
        }
      ]
    },
    {
      "name": "Object_10",
      "primitives": [
        {
          "attributes": {
            "NORMAL": 32,
            "POSITION": 31
          },
          "indices": 33,
          "material": 5,
          "mode": 4
        }
      ]
    }
  ],
  "nodes": [
    {
      "children": [
        1
      ],
      "matrix": [
        1.0,
        0.0,
        0.0,
        0.0,
        0.0,
        2.220446049250313e-16,
        -1.0,
        0.0,
        0.0,
        1.0,
        2.220446049250313e-16,
        0.0,
        0.0,
        0.0,
        0.0,
        1.0
      ],
      "name": "Sketchfab_model"
    },
    {
      "children": [
        2
      ],
      "name": "root"
    },
    {
      "children": [
        3,
        5,
        7,
        9,
        11,
        13,
        15,
        17,
        19,
        21,
        23
      ],
      "matrix": [
        1.0,
        0.0,
        0.0,
        0.0,
        0.0,
        2.220446049250313e-16,
        1.0,
        0.0,
        0.0,
        -1.0,
        2.220446049250313e-16,
        0.0,
        0.0,
        0.0,
        0.0,
        1.0
      ],
      "name": "GLTF_SceneRootNode"
    },
    {
      "children": [
        4
      ],
      "matrix": [
        2.156287431716919,
        0.0,
        0.0,
        0.0,
        0.0,
        2.156287431716919,
        0.0,
        0.0,
        0.0,
        0.0,
        2.156287431716919,
        0.0,
        -1.9160792827606201,
        0.017694711685180664,
        0.0050338879227638245,
        1.0
      ],
      "name": "Sphere_0"
    },
    {
      "mesh": 0,
      "name": "Object_4"
    },
    {
      "children": [
        6
      ],
      "matrix": [
        -0.0,
        0.20116403698921204,
        0.0,
        -0.0,
        -0.20116403698921204,
        -0.0,
        -0.0,
        -0.0,
        -0.0,
        0.0,
        -0.20116403698921204,
        -0.0,
        0.5235475897789001,
        0.4582931399345398,
        1.1902376413345337,
        1.0
      ],
      "name": "Retopo_Eye Left.001_1"
    },
    {
      "mesh": 1,
      "name": "Object_6"
    },
    {
      "children": [
        8
      ],
      "matrix": [
        -0.0,
        0.20116403698921204,
        0.0,
        -0.0,
        -0.20116403698921204,
        -0.0,
        -0.0,
        -0.0,
        -0.0,
        0.0,
        -0.20116403698921204,
        -0.0,
        0.5235475897789001,
        0.4582931399345398,
        1.1902376413345337,
        1.0
      ],
      "name": "Retopo_Eye Left.002_2"
    },
    {
      "mesh": 2,
      "name": "Object_8"
    },
    {
      "children": [
        10
      ],
      "matrix": [
        -0.0,
        0.20116403698921204,
        0.0,
        -0.0,
        -0.20116403698921204,
        -0.0,
        0.0,
        -0.0,
        -0.0,
        0.0,
        -0.20116403698921204,
        -0.0,
        0.5235475897789001,
        0.4582931399345398,
        -1.1664841175079346,
        1.0
      ],
      "name": "Retopo_Eye Left.003_3"
    },
    {
      "mesh": 3,
      "name": "Object_10"
    },
    {
      "children": [
        12
      ],
      "matrix": [
        -0.0,
        0.20116403698921204,
        0.0,
        -0.0,
        -0.20116403698921204,
        -0.0,
        0.0,
        -0.0,
        -0.0,
        0.0,
        -0.20116403698921204,
        -0.0,
        0.5235475897789001,
        0.4582931399345398,
        -1.1664841175079346,
        1.0
      ],
      "name": "Retopo_Eye Left.004_4"
    },
    {
      "mesh": 4,
      "name": "Object_12"
    },
    {
      "children": [
        14
      ],
      "matrix": [
        -0.9999999999999907,
        -1.2803191233256373e-07,
        -5.312221284358942e-08,
        0.0,
        1.2803191233256373e-07,
        -0.7062611715446978,
        -0.7079513807941158,
        0.0,
        5.312221284358942e-08,
        -0.7079513807941158,
        0.7062611715447071,
        0.0,
        0.16514389216899872,
        0.9241639375686646,
        -0.848867654800415,
        1.0
      ],
      "name": "Retopo_Left EyeBrow.002_5"
    },
    {
      "mesh": 5,
      "name": "Object_14"
    },
    {
      "children": [
        16
      ],
      "matrix": [
        1.0,
        0.0,
        0.0,
        0.0,
        0.0,
        -0.7062613208139981,
        0.7079512318811706,
        0.0,
        0.0,
        -0.7079512318811706,
        -0.7062613208139981,
        0.0,
        0.15337170660495758,
        0.9607591032981873,
        0.31978920102119446,
        1.0
      ],
      "name": "Retopo_Left EyeBrow.003_6"
    },
    {
      "mesh": 6,
      "name": "Object_16"
    },
    {
      "children": [
        18
      ],
      "matrix": [
        1.0,
        0.0,
        0.0,
        0.0,
        0.0,
        1.0,
        0.0,
        0.0,
        0.0,
        0.0,
        1.0,
        0.0,
        0.11918973922729492,
        -0.5147173404693604,
        -0.07389684021472931,
        1.0
      ],
      "name": "Retopo_Mouth.001_7"
    },
    {
      "mesh": 7,
      "name": "Object_18"
    },
    {
      "children": [
        20
      ],
      "matrix": [
        1.0,
        0.0,
        0.0,
        0.0,
        0.0,
        1.0,
        0.0,
        0.0,
        0.0,
        0.0,
        1.0,
        0.0,
        -0.581477165222168,
        -0.4992612302303314,
        -0.010084702633321285,
        1.0
      ],
      "name": "Retopo_Cube.002_8"
    },
    {
      "mesh": 8,
      "name": "Object_20"
    },
    {
      "children": [
        22
      ],
      "matrix": [
        0.22873805463314056,
        0.0,
        0.0,
        0.0,
        0.0,
        0.8921156254136149,
        0.45180716117927433,
        0.0,
        0.0,
        -0.45180716117927433,
        0.8921156254136149,
        0.0,
        0.09961466491222382,
        -0.5404329299926758,
        -1.4939439296722412,
        1.0
      ],
      "name": "Retopo_Tear Right.001_9"
    },
    {
      "mesh": 9,
      "name": "Object_22"
    },
    {
      "children": [
        24
      ],
      "matrix": [
        0.22873805463314056,
        0.0,
        0.0,
        0.0,
        0.0,
        1.0,
        0.0,
        0.0,
        0.0,
        0.0,
        1.0,
        0.0,
        0.09781920909881592,
        -0.4605245590209961,
        1.6561568975448608,
        1.0
      ],
      "name": "Retopo_Tear Left.001_10"
    },
    {
      "mesh": 10,
      "name": "Object_24"
    }
  ],
  "scene": 0,
  "scenes": [
    {
      "name": "Sketchfab_Scene",
      "nodes": [
        0
      ]
    }
  ]
}
